<svg id="Layer_1" data-name="Layer 1" xmlns="http://www.w3.org/2000/svg" xmlns:xlink="http://www.w3.org/1999/xlink" viewBox="0 0 347.43 153.57"><defs><style>.cls-1{fill:#fff;}.cls-2{fill:#58595b;}.cls-3{fill:#d1d3d4;}.cls-4{fill:#939598;}.cls-5{fill:#edbc51;}.cls-13,.cls-22,.cls-24,.cls-6,.cls-8{fill:none;}.cls-13,.cls-21,.cls-22,.cls-24,.cls-6,.cls-8{stroke:#231f20;stroke-miterlimit:10;}.cls-22,.cls-6{stroke-width:0.75px;}.cls-19,.cls-20,.cls-23,.cls-25,.cls-7{fill:#231f20;}.cls-8{stroke-width:0.5px;}.cls-9{fill:#afd361;}.cls-10{fill:#83d0d1;}.cls-11{fill:#faa74a;}.cls-12{fill:#de7d64;}.cls-13,.cls-21{stroke-width:0.25px;}.cls-14{fill:#7d6fb3;}.cls-15{fill:#5e8ec2;}.cls-16,.cls-18,.cls-19,.cls-25{font-size:8px;}.cls-16{fill:#e8ae22;}.cls-16,.cls-18{font-family:Arial-BoldMT, Arial;font-weight:700;}.cls-17{font-family:Arial-BoldItalicMT, Arial;}.cls-17,.cls-20,.cls-23,.cls-25{font-style:italic;}.cls-18{fill:#2d7cb6;}.cls-19{font-family:ArialMT, Arial;}.cls-20{font-size:14px;}.cls-20,.cls-23,.cls-25{font-family:Arial-ItalicMT, Arial;}.cls-21{fill:url(#linear-gradient);}.cls-22{stroke-dasharray:1;}.cls-23{font-size:10px;}</style><linearGradient id="linear-gradient" x1="330.23" y1="49.8" x2="361.11" y2="49.8" gradientTransform="matrix(0, -1, -1, 0, 392.98, 429.79)" gradientUnits="userSpaceOnUse"><stop offset="0" stop-color="#fff"/><stop offset="0.22" stop-color="#fcfcfc"/><stop offset="0.37" stop-color="#f3f3f3"/><stop offset="0.5" stop-color="#e4e4e4"/><stop offset="0.61" stop-color="#cfcecf"/><stop offset="0.72" stop-color="#b3b2b3"/><stop offset="0.82" stop-color="#919091"/><stop offset="0.92" stop-color="#69686a"/><stop offset="1" stop-color="#414042"/></linearGradient></defs><rect class="cls-1" x="271.16" y="103.44" width="50" height="50"/><rect class="cls-2" x="271.16" y="133.44" width="10" height="10"/><rect class="cls-3" x="271.16" y="143.44" width="10" height="10"/><rect class="cls-4" x="291.16" y="143.44" width="10" height="10"/><rect class="cls-3" x="281.16" y="133.44" width="10" height="10"/><rect class="cls-2" x="281.16" y="123.44" width="10" height="10"/><rect class="cls-3" x="291.16" y="133.44" width="10" height="10"/><rect class="cls-4" x="301.15" y="123.44" width="10" height="10"/><rect class="cls-4" x="301.15" y="143.44" width="10" height="10"/><rect class="cls-2" x="311.16" y="103.44" width="10" height="10"/><rect class="cls-3" x="311.15" y="143.44" width="10" height="10"/><rect class="cls-3" x="311.15" y="113.44" width="10" height="10"/><rect class="cls-4" x="291.16" y="113.44" width="10" height="10"/><rect class="cls-1" x="271.17" y="19.68" width="50" height="50"/><rect class="cls-4" x="271.17" y="29.68" width="10" height="10"/><rect class="cls-2" x="271.17" y="39.68" width="10" height="10"/><rect class="cls-3" x="271.17" y="49.68" width="10" height="10"/><rect class="cls-4" x="281.17" y="59.68" width="10" height="10"/><rect class="cls-3" x="291.17" y="19.68" width="10" height="10"/><rect class="cls-2" x="291.17" y="29.68" width="10" height="10"/><rect class="cls-4" x="301.16" y="39.68" width="10" height="10"/><rect class="cls-4" x="301.16" y="59.68" width="10" height="10"/><rect class="cls-2" x="311.16" y="49.68" width="10" height="10"/><rect class="cls-3" x="311.17" y="39.68" width="10" height="10"/><rect class="cls-3" x="311.16" y="29.68" width="10" height="10"/><rect class="cls-3" x="291.17" y="49.68" width="10" height="10"/><path class="cls-5" d="M150,69C124,83.88,68,19.6,108,18c10.88,1.24,17.53,17.64,37.15,29C154.9,52.44,157.86,64,150,69Z" transform="translate(-2.96 -2.7)"/><path class="cls-6" d="M125.25,38.84" transform="translate(-2.96 -2.7)"/><path class="cls-6" d="M115.59,48.5" transform="translate(-2.96 -2.7)"/><path class="cls-6" d="M125.25,38.84a9.66,9.66,0,0,1,0,19.32" transform="translate(-2.96 -2.7)"/><circle class="cls-7" cx="122.28" cy="55.46" r="2.23"/><circle class="cls-7" cx="131.94" cy="45.8" r="2.23"/><circle class="cls-7" cx="108.98" cy="30.19" r="2.23"/><path class="cls-6" d="M125.25,38.84H113.94a2,2,0,0,1-2-2v-4" transform="translate(-2.96 -2.7)"/><path class="cls-6" d="M131.2,64.12h-3.95a2,2,0,0,1-2-2v-4" transform="translate(-2.96 -2.7)"/><path class="cls-6" d="M125.25,38.84h-4a2,2,0,0,1-2-2v-4" transform="translate(-2.96 -2.7)"/><circle class="cls-7" cx="116.33" cy="30.19" r="2.23"/><path class="cls-6" d="M140.86,54.46h-4a2,2,0,0,1-2-2v-4" transform="translate(-2.96 -2.7)"/><circle class="cls-7" cx="137.89" cy="51.85" r="2.23"/><circle class="cls-7" cx="128.23" cy="61.41" r="2.23"/><path class="cls-6" d="M111.94,32.89h-4a2,2,0,0,1-2-2V26.94" transform="translate(-2.96 -2.7)"/><circle class="cls-7" cx="103.03" cy="24.23" r="2.23"/><line class="cls-8" x1="132.43" y1="45.8" x2="161.08" y2="45.8"/><polygon class="cls-7" points="160.09 47.25 165.51 45.8 160.09 44.35 160.09 47.25"/><line class="cls-8" x1="139.16" y1="51.85" x2="167.82" y2="51.85"/><polygon class="cls-7" points="166.83 53.3 172.25 51.85 166.83 50.4 166.83 53.3"/><line class="cls-8" x1="128.23" y1="61.41" x2="156.89" y2="61.41"/><polygon class="cls-7" points="155.9 62.87 161.32 61.41 155.9 59.96 155.9 62.87"/><polygon class="cls-9" points="173.62 34.65 175.65 38.77 180.2 39.43 176.91 42.64 177.69 47.16 173.62 45.02 169.56 47.16 170.33 42.64 167.04 39.43 171.59 38.77 173.62 34.65"/><circle class="cls-10" cx="179.26" cy="53.23" r="4.31"/><polygon class="cls-11" points="168.13 56.66 162.65 66.17 173.62 66.17 168.13 56.66"/><line class="cls-8" x1="58.92" y1="24.23" x2="92.34" y2="24.23"/><polygon class="cls-7" points="91.34 25.68 96.77 24.23 91.34 22.78 91.34 25.68"/><rect class="cls-12" x="49.98" y="22.93" width="8.01" height="8.01" transform="translate(77.95 -29.75) rotate(90)"/><rect class="cls-13" x="271.17" y="19.68" width="50" height="50"/><line class="cls-13" x1="271.17" y1="59.68" x2="321.17" y2="59.68"/><line class="cls-13" x1="271.17" y1="49.68" x2="321.17" y2="49.68"/><line class="cls-13" x1="271.17" y1="39.68" x2="321.17" y2="39.68"/><line class="cls-13" x1="271.17" y1="29.68" x2="321.17" y2="29.68"/><line class="cls-13" x1="311.17" y1="19.68" x2="311.17" y2="69.68"/><line class="cls-13" x1="301.17" y1="19.68" x2="301.17" y2="69.68"/><line class="cls-13" x1="291.17" y1="19.68" x2="291.17" y2="69.68"/><line class="cls-13" x1="281.17" y1="19.68" x2="281.17" y2="69.68"/><polygon class="cls-9" points="263.13 31.31 264.15 33.37 266.42 33.7 264.77 35.3 265.16 37.56 263.13 36.49 261.1 37.56 261.49 35.3 259.84 33.7 262.11 33.37 263.13 31.31"/><circle class="cls-10" cx="263.13" cy="44.65" r="2.16"/><polygon class="cls-11" points="263.13 52.49 260.39 57.24 265.87 57.24 263.13 52.49"/><polygon class="cls-14" points="263.13 67.46 265.87 62.71 260.39 62.71 263.13 67.46"/><rect class="cls-12" x="261.13" y="22.21" width="4" height="4"/><polygon class="cls-9" points="286.33 9.05 287.35 11.11 289.62 11.44 287.98 13.04 288.37 15.31 286.33 14.24 284.3 15.31 284.69 13.04 283.04 11.44 285.32 11.11 286.33 9.05"/><circle class="cls-10" cx="296.25" cy="12.18" r="2.16"/><polygon class="cls-11" points="306.16 9.8 303.42 14.55 308.9 14.55 306.16 9.8"/><polygon class="cls-14" points="316.08 14.55 318.82 9.8 313.33 9.8 316.08 14.55"/><rect class="cls-12" x="274.42" y="10.18" width="4" height="4"/><path class="cls-6" d="M273.43,3.08h3.95a2,2,0,0,1,2,2v2" transform="translate(-2.96 -2.7)"/><polygon class="cls-7" points="278.7 4.05 274.14 4.05 276.42 6.33 278.7 4.05"/><path class="cls-15" d="M150,152.72c-26,14.93-82-49.35-42-50.92,10.88,1.23,17.53,17.64,37.15,29C154.94,136.21,157.9,147.78,150,152.72Z" transform="translate(-2.96 -2.7)"/><circle class="cls-6" cx="119.32" cy="128.57" r="9.66"/><circle class="cls-7" cx="119.32" cy="118.91" r="2.23"/><circle class="cls-7" cx="128.98" cy="128.57" r="2.23"/><circle class="cls-7" cx="106.02" cy="112.95" r="2.23"/><path class="cls-6" d="M122.28,121.61H111a2,2,0,0,1-2-2v-4" transform="translate(-2.96 -2.7)"/><circle class="cls-7" cx="134.93" cy="134.52" r="2.23"/><path class="cls-6" d="M137.9,137.23h-4a2,2,0,0,1-2-2v-4" transform="translate(-2.96 -2.7)"/><circle class="cls-7" cx="134.93" cy="143.48" r="2.23"/><line class="cls-6" x1="134.93" y1="134.52" x2="134.93" y2="143.48"/><line class="cls-8" x1="134.93" y1="134.52" x2="163.59" y2="134.52"/><polygon class="cls-7" points="162.6 135.97 168.02 134.52 162.6 133.07 162.6 135.97"/><line class="cls-8" x1="134.93" y1="143.48" x2="163.59" y2="143.48"/><polygon class="cls-7" points="162.6 144.93 168.02 143.48 162.6 142.02 162.6 144.93"/><polygon class="cls-11" points="175.7 127.31 170.21 136.81 181.19 136.81 175.7 127.31"/><polygon class="cls-14" points="175.7 150.07 181.19 140.57 170.21 140.57 175.7 150.07"/><rect class="cls-13" x="271.16" y="103.44" width="50" height="50"/><line class="cls-13" x1="271.16" y1="143.44" x2="321.16" y2="143.44"/><line class="cls-13" x1="271.16" y1="133.44" x2="321.16" y2="133.44"/><line class="cls-13" x1="271.16" y1="123.44" x2="321.16" y2="123.44"/><line class="cls-13" x1="271.16" y1="113.44" x2="321.16" y2="113.44"/><line class="cls-13" x1="311.16" y1="103.44" x2="311.16" y2="153.44"/><line class="cls-13" x1="301.16" y1="103.44" x2="301.16" y2="153.44"/><line class="cls-13" x1="291.16" y1="103.44" x2="291.16" y2="153.44"/><line class="cls-13" x1="281.16" y1="103.44" x2="281.16" y2="153.44"/><polygon class="cls-9" points="263.12 115.07 264.13 117.13 266.4 117.46 264.76 119.06 265.15 121.33 263.12 120.26 261.08 121.33 261.47 119.06 259.83 117.46 262.1 117.13 263.12 115.07"/><circle class="cls-10" cx="263.11" cy="128.42" r="2.16"/><polygon class="cls-11" points="263.12 136.26 260.37 141.01 265.86 141.01 263.12 136.26"/><polygon class="cls-14" points="263.12 151.23 265.86 146.47 260.37 146.47 263.12 151.23"/><rect class="cls-12" x="261.11" y="105.98" width="4" height="4"/><polygon class="cls-9" points="286.32 92.82 287.33 94.88 289.61 95.21 287.96 96.81 288.35 99.07 286.32 98 284.29 99.07 284.67 96.81 283.03 95.21 285.3 94.88 286.32 92.82"/><circle class="cls-10" cx="296.23" cy="95.94" r="2.16"/><polygon class="cls-11" points="306.15 93.57 303.4 98.32 308.89 98.32 306.15 93.57"/><polygon class="cls-14" points="316.06 98.32 318.8 93.57 313.32 93.57 316.06 98.32"/><rect class="cls-12" x="274.4" y="93.94" width="4" height="4"/><rect class="cls-12" x="274.4" y="93.94" width="4" height="4"/><path class="cls-6" d="M273.41,86.84h4a2,2,0,0,1,2,2v2" transform="translate(-2.96 -2.7)"/><polygon class="cls-7" points="278.68 87.82 274.13 87.82 276.4 90.09 278.68 87.82"/><line class="cls-8" x1="58.92" y1="112.95" x2="97.59" y2="112.95"/><polygon class="cls-7" points="96.6 114.41 102.02 112.95 96.6 111.5 96.6 114.41"/><rect class="cls-12" x="49.98" y="111.65" width="8.01" height="8.01" transform="translate(166.68 58.97) rotate(90)"/><text class="cls-16" transform="translate(119.32 19.53)">Species <tspan class="cls-17" x="32.46" y="0">i</tspan></text><text class="cls-18" transform="translate(119.32 103.3)">Species <tspan class="cls-17" x="32.46" y="0">j</tspan></text><circle class="cls-7" cx="112.48" cy="135.41" r="2.23"/><text class="cls-19" transform="translate(183.57 42.57)">Resource β</text><text class="cls-19" transform="translate(189.17 55.03)">Resource γ</text><text class="cls-19" transform="translate(178.97 67.49)">Resource δ</text><text class="cls-19" transform="translate(185.2 148.64)">Resource ε</text><text class="cls-19" transform="translate(0 115.82)">Resource α</text><text class="cls-19" transform="translate(0 27.09)">Resource α</text><text class="cls-19" transform="translate(185.83 134.52)">Resource δ</text><text class="cls-20" transform="translate(223.34 12.18)">D</text><text class="cls-20" transform="translate(233.45 16.84) scale(0.58)">iβα</text><polygon class="cls-21" points="339.07 99.56 339.07 68.68 347.27 68.68 339.07 99.56"/><text class="cls-19" transform="translate(332.75 101.3)">0</text><text class="cls-19" transform="translate(332.75 70.91)">1</text><path class="cls-22" d="M248.84,10.45a29.92,29.92,0,0,1,19.4,6.37,30.33,30.33,0,0,1,10.9,20.56" transform="translate(-2.96 -2.7)"/><text class="cls-20" transform="translate(223.33 95.94)">D</text><text class="cls-20" transform="translate(233.44 100.61) scale(0.58)">jβα</text><path class="cls-22" d="M248.82,94.22a29.8,29.8,0,0,1,19.4,6.37,30.2,30.2,0,0,1,10.9,20.55" transform="translate(-2.96 -2.7)"/><text class="cls-23" transform="translate(67.85 32.06)">c</text><text class="cls-23" transform="translate(72.85 35.39) scale(0.58)">iα</text><text class="cls-23" transform="translate(67.85 105.78)">c</text><text class="cls-23" transform="translate(72.85 109.11) scale(0.58)">jα</text><polyline class="cls-8" points="40.28 58.2 40.28 81.71 73.06 81.71"/><path class="cls-24" d="M45.83,81.91c5.08-3.41,3.6-10.2,7.05-16.59a3.14,3.14,0,0,1,1.63-1.09C59.13,63.16,61.85,78.33,69.6,81a7.2,7.2,0,0,0,2.55.4" transform="translate(-2.96 -2.7)"/><line class="cls-22" x1="63.27" y1="81.71" x2="63.27" y2="76.35"/><line class="cls-22" x1="63.27" y1="81.71" x2="69.18" y2="97.46"/><line class="cls-22" x1="56.02" y1="81.71" x2="56.02" y2="65.19"/><line class="cls-22" x1="69.62" y1="36.14" x2="56.02" y2="65.19"/><text class="cls-25" transform="translate(75.34 83.78)">c</text></svg>